<?xml version="1.0" encoding="UTF-8"?>
<svg version="1.1" xmlns="http://www.w3.org/2000/svg" width="650" height="1802">
<path d="M0 0 C2.06117629 -0.02335381 4.12228517 -0.05348316 6.18327332 -0.08982849 C11.75288885 -0.16670685 17.31778736 -0.14301612 22.88757133 -0.09595799 C27.54730875 -0.06650235 32.20622241 -0.08839624 36.86595583 -0.11062998 C47.86279501 -0.16298454 58.85739117 -0.13559955 69.85400391 -0.0546875 C81.17787279 0.02754952 92.49676487 -0.00945937 103.82039309 -0.10782725 C113.56468272 -0.18912778 123.30746391 -0.20387935 133.05201292 -0.16404814 C138.86247125 -0.14047819 144.67041961 -0.13989688 150.48066711 -0.20027351 C155.94634243 -0.25353398 161.4054374 -0.22296002 166.87050819 -0.12934303 C168.8681853 -0.10857165 170.86640761 -0.11632576 172.86380577 -0.15564346 C187.54028331 -0.418996 187.54028331 -0.418996 192.42929268 3.77733541 C196.03418996 7.85922905 198.75386852 12.35436158 201.34331226 17.12655842 C202.79373608 19.67415656 204.56165955 21.85820358 206.45898438 24.08618164 C207.97370863 26.1606953 209.47360318 28.24098066 210.95898438 30.33618164 C211.38840332 30.93897949 211.81782227 31.54177734 212.26025391 32.1628418 C214.63873467 35.50600913 217.00317933 38.85871894 219.35742188 42.21899414 C229.59982958 57.81825488 229.59982958 57.81825488 241.45898438 72.08618164 C241.36094346 79.1451273 239.65532554 85.83113792 237.77148438 92.58618164 C235.60482445 100.61686235 233.59522598 108.65842398 231.77148438 116.77368164 C229.27312605 127.84151183 226.52904049 138.8382069 223.7479248 149.837677 C220.1348518 164.12953304 216.61204616 178.42132759 213.52148438 192.83618164 C213.30844162 193.82964096 213.30844162 193.82964096 213.09109497 194.84317017 C212.68352702 196.74573507 212.27632757 198.64837891 211.86914062 200.55102539 C210.24989061 208.11427676 208.4260599 215.6057536 206.45898438 223.08618164 C205.61556829 226.3145222 204.77383538 229.5432926 203.93359375 232.77246094 C203.35298118 235.00119885 202.76991698 237.22930057 202.18359375 239.45654297 C198.72804624 252.67520925 195.65754513 265.98743627 192.5292511 279.28642273 C191.67918079 282.89812305 190.82689644 286.50929885 189.97412109 290.12036133 C189.54237722 291.9520619 189.11207052 293.78410174 188.68310547 295.61645508 C188.0471685 298.33125135 187.40591441 301.04474611 186.76367188 303.75805664 C186.48231888 304.96761017 186.48231888 304.96761017 186.19528198 306.20159912 C184.90858147 311.60764435 183.29726803 316.84255284 181.45898438 322.08618164 C179.80898438 322.08618164 178.15898437 322.08618164 176.45898438 322.08618164 C176.52070328 322.82403397 176.58242218 323.56188629 176.64601135 324.32209778 C177.56075687 336.067996 177.94877074 347.8257216 178.36132812 359.59790039 C178.44462737 361.92845731 178.52809185 364.25900832 178.61170959 366.58955383 C178.78724574 371.49747304 178.96104101 376.40544986 179.13354492 381.31347656 C179.34680801 387.37858395 179.56384416 393.44354817 179.78219223 399.50847435 C180.66752191 424.13952306 181.49224565 448.77115161 182.20108885 473.40793806 C183.02518693 502.04513056 183.98981348 530.67530319 185.04492188 559.30493164 C185.09817973 560.75053526 185.09817973 560.75053526 185.1525135 562.22534299 C185.55729822 573.2063336 185.96465891 584.18722802 186.37289429 595.16809082 C187.1631471 616.42696448 187.94367151 637.68619598 188.72070312 658.94555664 C188.75915509 659.99713864 188.79760706 661.04872065 188.83722425 662.13216877 C190.19812465 699.36413014 191.46912656 736.59797191 192.64648438 773.83618164 C192.9501917 783.43907756 193.25414788 793.04196491 193.56054688 802.64477539 C193.597068 803.7895957 193.63358913 804.93441601 193.67121696 806.11392784 C194.5592022 833.8507134 195.60196554 861.5815235 196.65057755 889.31261826 C197.84830819 920.99363991 198.94688648 952.67503532 199.91711426 984.36380005 C200.81224248 1013.55118706 201.83124325 1042.73315358 202.90820312 1071.91430664 C202.95717885 1073.24188999 202.95717885 1073.24188999 203.00714397 1074.59629321 C203.6700242 1092.5598617 204.33771799 1110.52324888 205.01279634 1128.48636317 C205.3622878 1137.7865056 205.71035463 1147.08670054 206.05664062 1156.38696289 C206.08739425 1157.21259468 206.11814788 1158.03822646 206.14983344 1158.88887739 C207.12055993 1184.97676873 207.9811962 1211.06641712 208.76138306 1237.16064453 C209.46913225 1260.79866004 210.28972252 1284.43176942 211.14855957 1308.06472778 C211.40650586 1315.1641581 211.66089372 1322.26371401 211.91503906 1329.36328125 C212.65078769 1349.89188821 213.39309326 1370.42021481 214.16261292 1390.94758606 C214.41457677 1397.66991896 214.6630888 1404.39237823 214.91074657 1411.11487103 C215.07239024 1415.49408058 215.23614536 1419.87318658 215.40548706 1424.25210571 C215.75982216 1433.43231352 216.082883 1442.61221632 216.33621216 1451.79580688 C216.41655658 1454.70013262 216.5105573 1457.60358745 216.61422729 1460.50717163 C216.73970698 1464.08579057 216.82996739 1467.66376169 216.89507294 1471.24397087 C216.93773813 1473.18022568 217.01254215 1475.1156911 217.08868408 1477.05091858 C217.21788102 1487.76337539 213.40415045 1493.899431 206.11132812 1501.45336914 C205.47694824 1502.07695313 204.84256836 1502.70053711 204.18896484 1503.34301758 C201.87465053 1505.67496849 199.99171404 1508.22860386 198.08398438 1510.89868164 C189.51251856 1522.4020694 180.78317449 1533.78969438 172.02148438 1545.14868164 C166.99138594 1551.67692919 162.04758933 1558.26854843 157.12451172 1564.87768555 C151.35875258 1572.61683842 145.53429736 1580.30024549 139.58398438 1587.89868164 C134.01637602 1595.00945639 128.63007408 1602.23812955 123.29858398 1609.52709961 C119.74117005 1614.37981854 116.0952068 1619.13094651 112.29492188 1623.79711914 C110.22871917 1626.37327826 108.24720551 1629.00249918 106.27148438 1631.64868164 C105.52640625 1632.63481445 104.78132812 1633.62094727 104.01367188 1634.63696289 C102.04544446 1637.2631046 100.15859613 1639.9387675 98.27929688 1642.62915039 C97.15207071 1644.1984324 96.02446816 1645.76744411 94.89648438 1647.33618164 C94.37868408 1648.10003174 93.86088379 1648.86388184 93.32739258 1649.65087891 C89.7226863 1654.59275123 89.7226863 1654.59275123 86.51318359 1655.84594727 C84.1322587 1656.10878035 82.69692819 1655.95269666 80.45898438 1655.08618164 C77.6890813 1652.78082041 75.75844428 1650.03190768 73.70898438 1647.08618164 C73.11118164 1646.2725415 72.51337891 1645.45890137 71.89746094 1644.62060547 C70.66407296 1642.93914311 69.44110543 1641.24998898 68.22851562 1639.5534668 C66.10047478 1636.58630609 63.90947721 1633.67089952 61.70800781 1630.75805664 C60.21622293 1628.78326388 58.73511057 1626.80084305 57.25585938 1624.81665039 C54.68833257 1621.38183487 52.08214868 1617.97861157 49.45898438 1614.58618164 C45.81184412 1609.86777158 42.21733422 1605.11256986 38.64648438 1600.33618164 C32.90630622 1592.66085374 27.08882063 1585.04664249 21.25976562 1577.4387207 C12.95954671 1566.59532192 4.67809177 1555.73833656 -3.49804688 1544.80102539 C-6.08128869 1541.36822795 -8.70202008 1537.96511387 -11.32641602 1534.5637207 C-16.04941403 1528.43764888 -20.73139635 1522.28042775 -25.41699219 1516.12573242 C-30.42487794 1509.54858261 -35.44211373 1502.97867435 -40.46801758 1496.4152832 C-40.96261475 1495.76914063 -41.45721191 1495.12299805 -41.96679688 1494.45727539 C-42.39387939 1493.89967529 -42.82096191 1493.3420752 -43.26098633 1492.76757812 C-43.683396 1492.21271729 -44.10580566 1491.65785645 -44.54101562 1491.08618164 C-45.08234131 1490.4900708 -45.62366699 1489.89395996 -46.18139648 1489.27978516 C-48.0366663 1486.28650103 -47.89762159 1484.12353612 -47.86914062 1480.61743164 C-47.86398438 1479.32192383 -47.85882813 1478.02641602 -47.85351562 1476.69165039 C-47.83268724 1475.32316073 -47.81185391 1473.95467115 -47.79101562 1472.58618164 C-47.78585938 1471.29325195 -47.78070313 1470.00032227 -47.77539062 1468.66821289 C-47.71216797 1460.59942191 -47.38791087 1452.5642446 -46.95440674 1444.50779724 C-46.30426293 1432.07955261 -45.98181678 1419.63771966 -45.60351562 1407.19885254 C-45.43891736 1401.79957947 -45.27093553 1396.40040979 -45.10324097 1391.00123215 C-45.04141161 1389.00909645 -44.97981151 1387.01695364 -44.91821289 1385.02481079 C-44.49348236 1371.37739885 -44.02217108 1357.7317156 -43.54101562 1344.08618164 C-44.2600708 1345.12162109 -44.97912598 1346.15706055 -45.7199707 1347.22387695 C-46.14903717 1347.84121704 -46.57810364 1348.45855713 -47.02017212 1349.09460449 C-47.90793222 1350.37412699 -48.79146996 1351.6565817 -49.67260742 1352.94067383 C-52.69166778 1357.2248348 -55.76107488 1360.69621127 -60.54101562 1363.08618164 C-64.41949987 1363.62114499 -67.03574989 1363.91917277 -70.50292969 1362.00048828 C-77.16150926 1356.59186738 -79.7031836 1349.80655352 -82.66601562 1342.02368164 C-83.2421134 1340.56235186 -83.82073848 1339.10201641 -84.40161133 1337.64257812 C-85.71077687 1334.34825828 -87.00896298 1331.04985242 -88.30224609 1327.74926758 C-92.19933658 1317.84598501 -96.26482413 1308.00989746 -100.29364014 1298.15969849 C-102.58391248 1292.55559916 -104.86513999 1286.94782621 -107.14648438 1281.34008789 C-114.12924753 1264.18169962 -121.11312914 1247.02374259 -128.1159668 1229.87353516 C-128.98747724 1227.73456072 -129.85584149 1225.59430305 -130.72192383 1223.453125 C-132.61723645 1218.77088856 -134.51454602 1214.09768641 -136.56445312 1209.48071289 C-136.85215576 1208.81652344 -137.1398584 1208.15233398 -137.4362793 1207.46801758 C-138.147262 1205.83527702 -138.87988468 1204.21200003 -139.61523438 1202.59008789 C-142.65357546 1191.09054379 -139.42865569 1178.77291782 -137.49752808 1167.29483032 C-136.56308889 1161.73708711 -135.65668105 1156.17475726 -134.74536705 1150.61318398 C-134.40644047 1148.54772848 -134.06626105 1146.48248259 -133.7257843 1144.4172821 C-131.035769 1128.08865032 -128.4453384 1111.7442232 -125.85171509 1095.40005493 C-124.96892887 1089.83716069 -124.08454203 1084.27452158 -123.19995117 1078.71191406 C-116.24148338 1034.94880503 -109.31031088 991.1813605 -102.3840332 947.41314697 C-101.72987973 943.27947129 -101.07558919 939.14581732 -100.42122746 935.01217461 C-96.54585537 910.53086557 -92.68324133 886.04786677 -88.8890686 861.55383301 C-84.8576862 835.54836582 -80.70969836 809.5611533 -76.58447266 783.57044983 C-76.44424683 782.68696428 -76.304021 781.80347874 -76.1595459 780.8932209 C-75.87753207 779.11643898 -75.59550897 777.33965853 -75.31347656 775.56287956 C-72.88110113 760.23860687 -70.45808457 744.91287669 -68.04101562 729.58618164 C-62.35746053 693.55477521 -56.63975818 657.528774 -50.92433929 621.50241089 C-50.55137978 619.15151067 -50.17842974 616.80060895 -49.80548096 614.44970703 C-48.25931225 604.70348115 -46.71279067 594.95731131 -45.16601562 585.21118164 C-44.9789505 584.03239441 -44.79188538 582.85360718 -44.59915161 581.63909912 C-44.05122316 578.18654887 -43.50317645 574.73401742 -42.95507812 571.28149414 C-42.77076233 570.12027542 -42.58644653 568.9590567 -42.39654541 567.76264954 C-41.25863292 560.59641335 -40.11793381 553.430628 -38.9753418 546.26513672 C-34.64500405 519.10138282 -30.36689313 491.92963688 -26.10968018 464.7543335 C-25.60525236 461.53476654 -25.10064086 458.31522843 -24.59594727 455.09570312 C-24.42995089 454.03677196 -24.26395451 452.97784079 -24.09292793 451.88682079 C-23.75727721 449.74592616 -23.42155704 447.60504241 -23.08576775 445.4641695 C-22.24899292 440.12843837 -21.41358185 434.79250088 -20.58108521 429.45610046 C-19.03415879 419.54885567 -17.47526447 409.6439999 -15.8703661 399.74595737 C-15.12943806 395.17191848 -14.39555437 390.59676048 -13.66210747 386.0215168 C-13.31544362 383.8715667 -12.96541543 381.72215559 -12.61155891 379.57337761 C-9.46400073 360.45138404 -7.96499692 341.45225825 -7.54101562 322.08618164 C-9.19101563 322.08618164 -10.84101563 322.08618164 -12.54101562 322.08618164 C-17.19778673 305.15605618 -21.53411806 288.18101861 -25.54101562 271.08618164 C-26.18764355 268.33606218 -26.83508307 265.58613385 -27.48242188 262.83618164 C-28.5138136 258.45305293 -29.54490275 254.06985325 -30.57543945 249.68652344 C-34.68027049 232.22867471 -38.79565471 214.78508795 -43.36621094 197.44213867 C-46.26712977 186.39633235 -48.86300161 175.28321896 -51.45605469 164.16186523 C-52.48229942 159.76115093 -53.51081869 155.36097238 -54.54101562 150.96118164 C-54.71498871 150.21770477 -54.88896179 149.47422791 -55.06820679 148.70822144 C-57.18857259 139.6596736 -59.38175285 130.64089251 -61.81616211 121.67089844 C-63.66057102 114.81275959 -65.19294598 107.89159896 -66.72607422 100.95825195 C-68.1646594 94.52652476 -69.85371977 88.24759147 -71.84179688 81.96118164 C-73.54684749 74.95047074 -73.54684749 74.95047074 -71.54125977 71.2331543 C-70.07264494 69.05768405 -68.51761624 66.97820863 -66.91601562 64.89868164 C-66.33207031 64.1162207 -65.748125 63.33375977 -65.14648438 62.52758789 C-63.91091261 60.87313359 -62.66955935 59.22298337 -61.42285156 57.5769043 C-59.01394009 54.38856558 -56.64572087 51.171348 -54.27929688 47.95141602 C-52.52930685 45.57024981 -50.7734404 43.19348835 -49.01757812 40.81665039 C-45.13726104 35.55081528 -41.30976934 30.24728449 -37.50585938 24.92602539 C-36.52965295 23.56621482 -35.53399698 22.22019468 -34.52117157 20.88743496 C-32.96117413 18.68056432 -31.6311396 16.52476541 -30.29407501 14.18764591 C-22.25485259 0.94358574 -14.84361237 -0.25141936 0 0 Z " fill="#2B2E32" transform="translate(262.541015625,95.913818359375)"/>
<path d="M0 0 C0.66 0 1.32 0 2 0 C2.11571103 16.51096932 1.80458938 32.97262163 1.20556641 49.47192383 C1.11978141 51.92156229 1.03436914 54.37121382 0.94929504 56.82087708 C0.76679903 62.05224778 0.58178538 67.28352261 0.39436722 72.51471901 C0.12112434 80.14185543 -0.14722221 87.76915855 -0.41450746 95.3965058 C-0.85153209 107.86414397 -1.29222648 120.33164952 -1.73535156 132.79907227 C-2.15994282 144.74530033 -2.58305167 156.69157913 -3.00390625 168.63793945 C-3.0296584 169.36892016 -3.05541056 170.09990087 -3.08194308 170.85303251 C-3.26303287 175.99381605 -3.44402403 181.13460307 -3.625 186.27539062 C-3.82968136 192.08916871 -4.03440019 197.90294548 -4.23916626 203.71672058 C-4.26418715 204.4271872 -4.28920804 205.13765382 -4.31498714 205.86964973 C-4.67571514 216.11145615 -5.03800111 226.35320636 -5.4012146 236.59492493 C-6.25857777 260.78454681 -7.10565286 284.97442229 -7.92016602 309.16552734 C-8.79018323 334.9975053 -9.68629294 360.82853965 -10.58813477 386.65942383 C-10.64237114 388.21295882 -10.64237114 388.21295882 -10.6977032 389.79787835 C-11.07821932 400.69651778 -11.45899884 411.595148 -11.83992146 422.49377322 C-12.37206672 437.71927249 -12.90344862 452.94479832 -13.43455505 468.17033386 C-13.5190751 470.59321478 -13.60359546 473.01609569 -13.68811613 475.43897659 C-13.81601158 479.10527314 -13.94390617 482.77156973 -14.07179867 486.43786639 C-14.54933724 500.12744414 -15.02693906 513.81701967 -15.50463867 527.5065918 C-15.56983753 529.37502567 -15.56983753 529.37502567 -15.63635354 531.28120568 C-16.34288121 551.52760338 -17.05039038 571.77396668 -17.75819934 592.02031962 C-18.49058543 612.97049905 -19.22171621 633.92072204 -19.95175785 654.8709833 C-20.39916195 667.7090821 -20.84753282 680.54714634 -21.29722213 693.3851653 C-21.60528589 702.18254027 -21.91213118 710.97995725 -22.21807189 719.77740631 C-22.3935887 724.82344207 -22.5695921 729.8694594 -22.74707985 734.91542625 C-23.47618478 755.65352418 -24.15699863 776.390739 -24.66182381 797.13566667 C-24.91068222 807.27106319 -25.25193225 817.40056655 -25.6484375 827.53125 C-25.68355094 828.43071053 -25.71866438 829.33017106 -25.75484186 830.25688797 C-25.83558139 832.29161056 -25.91888768 834.32623087 -26.00244141 836.36083984 C-26.0637933 837.86415396 -26.12509084 839.36747029 -26.18634033 840.87078857 C-26.23272015 842.00680134 -26.23272015 842.00680134 -26.28003693 843.16576385 C-26.58300608 850.61288525 -26.87801133 858.06032705 -27.171875 865.5078125 C-27.20569401 866.36364552 -27.23951302 867.21947853 -27.27435684 868.10124588 C-27.83587953 882.35511834 -28.34330178 896.61051537 -28.828125 910.8671875 C-28.86181309 911.8543148 -28.89550117 912.84144211 -28.93021011 913.85848236 C-29.26095573 923.55097001 -29.58862884 933.24354302 -29.90608215 942.93647575 C-30.02410049 946.51846771 -30.14510279 950.10035483 -30.26677704 953.68222427 C-30.32259684 955.34704112 -30.3770407 957.01190475 -30.43000031 958.67681503 C-30.50276816 960.96224562 -30.58020824 963.24747441 -30.65869141 965.53271484 C-30.70071686 966.81270355 -30.74274231 968.09269226 -30.78604126 969.41146851 C-31.51007537 981.55502102 -36.97959587 990.02957077 -45 999 C-48.72924006 1002.25316686 -51.85480377 1003.88412736 -56.9375 1003.55322266 C-61.29480786 1002.3844656 -64.15381315 999.3810987 -67 996 C-69.49946889 991.48747212 -71.29435127 986.74631279 -73.125 981.9375 C-73.70109777 980.47617022 -74.27972286 979.01583477 -74.8605957 977.55639648 C-76.16976125 974.26207664 -77.46794735 970.96367078 -78.76123047 967.66308594 C-82.65832096 957.75980337 -86.7238085 947.92371582 -90.75262451 938.07351685 C-93.04289685 932.46941752 -95.32412436 926.86164457 -97.60546875 921.25390625 C-104.5882319 904.09551798 -111.57211351 886.93756095 -118.57495117 869.78735352 C-119.44646161 867.64837908 -120.31482586 865.50812141 -121.1809082 863.36694336 C-123.07622082 858.68470692 -124.97353039 854.01150477 -127.0234375 849.39453125 C-127.45499146 848.39824707 -127.45499146 848.39824707 -127.89526367 847.38183594 C-128.60624638 845.74909538 -129.33886906 844.12581838 -130.07421875 842.50390625 C-133.11255983 831.00436215 -129.88764006 818.68673618 -127.95651245 807.20864868 C-127.02207326 801.65090547 -126.11566543 796.08857562 -125.20435143 790.52700233 C-124.86542485 788.46154684 -124.52524542 786.39630095 -124.18476868 784.33110046 C-121.49475337 768.00246868 -118.90432278 751.65804156 -116.31069946 735.31387329 C-115.42791324 729.75097905 -114.54352641 724.18833994 -113.65893555 718.62573242 C-106.70046776 674.86262339 -99.76929525 631.09517886 -92.84301758 587.32696533 C-92.18886411 583.19328965 -91.53457357 579.05963568 -90.88021183 574.92599297 C-87.00483975 550.44468393 -83.14222571 525.96168513 -79.34805298 501.46765137 C-75.31667057 475.46218418 -71.16868274 449.47497166 -67.04345703 423.48426819 C-66.9032312 422.60078264 -66.76300537 421.7172971 -66.61853027 420.80703926 C-66.33651645 419.03025734 -66.05449334 417.25347689 -65.77246094 415.47669792 C-63.34008551 400.15242523 -60.91706894 384.82669505 -58.5 369.5 C-52.81644491 333.46859357 -47.09874256 297.44259236 -41.38332367 261.41622925 C-41.01036415 259.06532903 -40.63741412 256.71442731 -40.26446533 254.36352539 C-38.71829662 244.61729951 -37.17177504 234.87112967 -35.625 225.125 C-35.43793488 223.94621277 -35.25086975 222.76742554 -35.05813599 221.55291748 C-34.51020753 218.10036723 -33.96215847 214.64783616 -33.4140625 211.1953125 C-33.2297467 210.03404846 -33.04543091 208.87278442 -32.85552979 207.67633057 C-31.71777015 200.51084785 -30.57705303 193.34584425 -29.43432617 186.18115234 C-26.29741326 166.50742569 -23.18095541 146.83064296 -20.09765625 127.1484375 C-19.93276451 126.09591923 -19.76787277 125.04340096 -19.59798431 123.95898819 C-18.08250701 114.28419573 -16.56841027 104.60918734 -15.05493164 94.93408203 C-10.10254211 63.27871386 -5.08250637 31.63474324 0 0 Z " fill="#1E2023" transform="translate(253,456)"/>
<path d="M0 0 C0.66 0 1.32 0 2 0 C2 7.92 2 15.84 2 24 C1.67 24 1.34 24 1 24 C0.67 20.04 0.34 16.08 0 12 C-0.33 12 -0.66 12 -1 12 C-1.08159574 7.83861737 -0.98248524 4.0527516 0 0 Z " fill="#232629" transform="translate(253,456)"/>
</svg>
